<svg width="126" height="40" viewBox="0 0 126 40" fill="none" xmlns="http://www.w3.org/2000/svg">
<path d="M35.672 16.48C35.368 15.92 34.928 15.496 34.352 15.208C33.792 14.904 33.128 14.752 32.36 14.752C31.032 14.752 29.968 15.192 29.168 16.072C28.368 16.936 27.968 18.096 27.968 19.552C27.968 21.104 28.384 22.32 29.216 23.2C30.064 24.064 31.224 24.496 32.696 24.496C33.704 24.496 34.552 24.24 35.24 23.728C35.944 23.216 36.456 22.48 36.776 21.52H31.568V18.496H40.496V22.312C40.192 23.336 39.672 24.288 38.936 25.168C38.216 26.048 37.296 26.76 36.176 27.304C35.056 27.848 33.792 28.12 32.384 28.12C30.72 28.12 29.232 27.76 27.92 27.04C26.624 26.304 25.608 25.288 24.872 23.992C24.152 22.696 23.792 21.216 23.792 19.552C23.792 17.888 24.152 16.408 24.872 15.112C25.608 13.8 26.624 12.784 27.92 12.064C29.216 11.328 30.696 10.96 32.36 10.96C34.376 10.96 36.072 11.448 37.448 12.424C38.84 13.4 39.76 14.752 40.208 16.48H35.672ZM53.2573 25.024H46.9693L45.9613 28H41.6653L47.7613 11.152H52.5133L58.6093 28H54.2653L53.2573 25.024ZM52.2013 21.856L50.1133 15.688L48.0493 21.856H52.2013ZM59.7686 19.552C59.7686 17.888 60.1286 16.408 60.8486 15.112C61.5686 13.8 62.5686 12.784 63.8486 12.064C65.1446 11.328 66.6086 10.96 68.2406 10.96C70.2406 10.96 71.9526 11.488 73.3766 12.544C74.8006 13.6 75.7526 15.04 76.2326 16.864H71.7206C71.3846 16.16 70.9046 15.624 70.2806 15.256C69.6726 14.888 68.9766 14.704 68.1926 14.704C66.9286 14.704 65.9046 15.144 65.1206 16.024C64.3366 16.904 63.9446 18.08 63.9446 19.552C63.9446 21.024 64.3366 22.2 65.1206 23.08C65.9046 23.96 66.9286 24.4 68.1926 24.4C68.9766 24.4 69.6726 24.216 70.2806 23.848C70.9046 23.48 71.3846 22.944 71.7206 22.24H76.2326C75.7526 24.064 74.8006 25.504 73.3766 26.56C71.9526 27.6 70.2406 28.12 68.2406 28.12C66.6086 28.12 65.1446 27.76 63.8486 27.04C62.5686 26.304 61.5686 25.288 60.8486 23.992C60.1286 22.696 59.7686 21.216 59.7686 19.552ZM93.3378 11.152V28H89.2338V21.064H82.8498V28H78.7458V11.152H82.8498V17.752H89.2338V11.152H93.3378ZM106.789 25.024H100.501L99.4925 28H95.1965L101.293 11.152H106.045L112.141 28H107.797L106.789 25.024ZM105.733 21.856L103.645 15.688L101.581 21.856H105.733Z" fill="#004AE2"/>
<path d="M12 23H7L14 9V17H19L12 31V23Z" fill="#E09728"/>
</svg>
